<?xml version="1.0" encoding="utf-8" ?><svg xmlns="http://www.w3.org/2000/svg" xmlns:xlink="http://www.w3.org/1999/xlink" width="595" height="420" viewBox="0 0 595 420"><path fill="#353275" d="M139.441 110.866C141.159 112.949 143.343 115.805 145.182 117.647C146.206 115.499 146.976 113.056 149.029 111.983C151.831 111.888 153.112 115.057 154.453 117.212C156.475 115.01 157.8 112.847 160.024 110.779C161.663 113.572 162.437 116.324 163.885 118.94C165.084 117.603 168.259 113.779 169.407 113.029C171.089 113.021 172.622 119.174 173.331 120.91C175.285 119.251 178.242 116.712 180.45 115.446C181.106 118.025 181.804 120.82 182.599 123.355C185.171 121.85 187.144 120.646 189.886 119.477C190.011 122.26 190.163 125.042 190.343 127.822C193.17 126.962 196.181 125.988 199.04 125.329C198.994 127.905 199 131.102 198.791 133.646L207.313 130.772C206.798 133.957 206.613 136.598 206.386 139.828C209.638 138.909 211.635 138.555 215.026 138.102C214.191 140.836 213.578 143.383 213.436 146.261C216.25 146.175 219.062 146.026 221.869 145.812C221.072 147.761 219.283 151.307 219.684 153.212C221.127 154.897 225.016 154.403 227.219 154.384C226.397 157.658 225.961 159.668 224.438 162.717C227.675 162.702 230.196 162.754 233.419 162.985C231.642 165.505 230.475 167.502 229.119 170.309C231.816 171.351 234.252 172.307 237.02 173.143C235.592 174.717 233.027 177.086 232.829 179.113C233.667 181.447 237.995 182.38 240.251 183.499C238.442 184.74 235.553 186.412 234.705 188.371C234.916 190.91 239.277 191.861 241.381 193.147C239.65 194.913 237.042 197.441 235.551 199.287C238.117 201.092 239.66 202.078 241.637 204.573C239.399 205.93 237.238 207.306 234.863 208.412C236.866 210.61 239.014 212.374 241.295 214.27C239.065 215.418 235.872 216.825 234.999 219.294C235.217 222.154 238.316 221.92 239.028 224.059C238.39 226.42 234.354 227.423 232.207 228.209C233.911 230.503 235.432 232.928 236.756 235.461C234.636 235.736 231.404 235.886 229.793 237.181C228.814 239.27 232.187 242.86 233.495 244.634C230.32 245.359 227.312 245.303 224.547 245.994C226.304 249.226 226.759 250.381 227.569 254.03L222.224 254.072C222.952 259.11 224.251 266.825 224.439 271.695C231.167 267.992 240.026 264.376 247.787 266.636C251.517 267.724 254.708 270.161 256.738 273.473C252.487 275.412 247.964 277.733 243.69 279.416C245.538 283.413 247.173 285.978 249.861 289.532C250.896 290.899 252.845 293.31 253.642 294.605C237.704 292.583 228.347 295.256 214.301 302.285C215.426 297.922 217.256 291.546 217.781 287.212C212.278 290.021 206.814 293.561 201.238 296.388C183.369 305.446 168.632 310.009 148.387 309.175C137.337 308.72 132.163 308.99 121.291 305.349C106.424 300.371 98.7181 296.48 86.2061 287.639C87.7701 293.365 88.8213 295.863 89.5035 301.857C73.1115 294.452 69.0146 293.056 50.5677 294.306C53.3614 288.956 57.8767 284.386 60.6428 279.416C55.8426 277.666 50.8667 275.9 46.5633 273.126C55.0916 263.12 65.2365 264.953 76.1327 269.86C76.2493 264.612 76.6123 259.21 76.6861 254.056L70.8264 254.14C72.478 251.591 73.9085 248.906 75.1023 246.113C72.7417 245.587 69.5571 245.529 66.4771 244.847C67.1691 242.46 70.1614 238.658 69.4877 237.058C67.7002 235.844 64.7146 235.923 62.5008 235.784C63.8657 232.712 67.1856 229.647 67.4113 228.521C65.0011 227.285 61.9625 225.866 59.8646 224.289C61.2489 222.767 64.1607 220.405 64.145 218.638C63.3735 216.894 60.241 215.459 58.4964 214.638C60.1097 213.046 62.652 210.67 64.0677 209.032C61.9996 206.722 60.3765 205.865 57.5701 204.498C59.3085 202.474 61.67 200.919 63.7511 199.127C62.0531 197.124 60.0912 195.308 58.2005 193.48C60.159 191.986 63.2614 190.583 65.545 189.585C63.771 187.522 61.7255 185.605 60.1209 183.478C62.7518 181.859 65.0988 180.824 67.8851 179.496C66.1125 177.352 64.0484 175.433 62.0553 173.487C64.1697 172.692 67.9684 171.385 69.8805 170.464C69.0865 168.529 67.4662 165.889 68.1186 164.12C69.5554 162.546 72.1502 162.605 74.3968 162.197C73.632 158.992 73.3714 157.178 71.7628 154.302C73.7368 154.232 77.1547 154.286 78.8559 153.659C80.1352 152.182 78.0481 148.016 77.4715 146.058C80.5213 145.476 82.2808 145.413 85.3386 146.211C84.5158 138.126 83.7261 137.638 92.2932 139.476C92.2275 136.828 92.2264 133.694 92.0503 131.089C94.941 131.926 96.9963 132.594 99.9838 132.973C100.324 130.254 100.62 127.531 100.871 124.803C103.393 125.88 105.942 126.889 108.518 127.831C108.885 124.96 109.143 122.546 109.325 119.661C112.48 120.877 114.339 122.664 117.139 123.946C117.725 121.361 118.437 118.558 118.764 115.944C121.011 117.247 123.47 118.862 125.659 120.069C127.161 117.374 127.886 115.057 129.132 112.365C130.935 114.345 133.519 117.342 135.428 119.071C136.686 116.311 137.981 113.527 139.441 110.866ZM77.2275 246.432C78.4218 249.163 80.0528 251.681 82.0564 253.888C79.6608 247.735 81.4697 245.603 85.7048 241.206L83.8462 239.462C81.234 237.757 80.6266 234.001 80.9131 230.993C80.9605 230.495 81.1466 230.547 81.5691 230.33C83.3599 231.027 84.2988 233.348 85.2214 235.06C87.4244 230.906 87.3524 224.756 94.4962 227.498C96.6527 228.326 96.8324 234.145 93.3581 234.421C91.1207 233.262 92.7142 230.647 91.4098 228.999C89.3667 229.605 89.7744 233.482 88.5459 235.042C87.4829 236.391 86.0518 237.082 84.8512 238.449C85.7586 239.333 85.6878 239.526 86.831 239.847C87.6735 239.604 87.8399 239.541 88.619 239.138C89.5675 238.347 96.9962 234.711 98.9759 233.596L99.7275 233.753C100.512 234.994 99.7871 236.517 100.381 237.932C101.139 239.738 102.74 240.785 103.352 242.615C103.753 243.582 104.223 244.639 104.552 245.623C103.914 248.934 103.693 249.819 101.854 252.683C100.905 254.148 98.2436 257.412 96.4866 257.812L96.3419 257.397C96.978 255.466 98.21 254.196 99.4785 252.588C98.031 251.687 90.5597 254.431 89.2318 249.333C88.5451 247.38 88.8745 245.142 88.065 243.563C84.4142 244.766 83.4881 246.453 85.27 250.096C86.4801 252.57 90.7086 254.659 91.3051 256.209L90.8082 257.066C87.0232 257.522 86.1636 256.854 83.0802 255.142C90.0143 264.028 100.986 271.407 110.818 276.658C148.122 296.58 194.918 282.815 219.823 249.885C229.879 236.589 234.537 220.684 233.43 204.086C233.108 199.264 233.767 193.978 232.775 189.101C229.015 167.843 216.919 148.296 199.343 135.711C181.044 122.458 158.209 117.058 135.911 120.712C114.609 124.258 94.3559 136.318 81.6092 153.883C75.9423 162.357 70.6319 171.441 68.2537 181.452C67.4521 184.743 67.3286 188.375 66.697 191.661C64.4395 203.41 66.3264 213.146 68.2583 224.693C69.9333 231.97 73.7079 239.83 77.2275 246.432ZM95.5619 242.043C92.9172 243.329 92.661 243.82 92.1074 246.682C93.8942 246.349 94.538 246.09 96.185 246.94C97.1353 248.581 97.4226 249.667 99.4504 249.511C101.018 248.573 101.248 247.403 101.777 245.712C100.787 242.129 98.8794 241.753 95.5619 242.043Z"/><path fill="#FBC70E" d="M148.797 156.763C151.847 159.225 154.544 163.449 157.044 166.429C167.77 179.215 173.758 204.507 150.751 208.322C141.679 208.63 134.257 203.48 132.656 194.42C130.057 179.72 141.288 167.594 148.797 156.763Z"/><path fill="#FBC70E" d="M165.409 162.495C167.307 162.504 171.67 164.562 173.371 165.538C181.978 170.482 189.72 178.05 192.286 187.916C196.546 204.3 182.908 211.512 169.857 216.126C165.039 217.829 158.76 219.441 154.547 222.178C153.036 223.159 152.392 224.324 151.515 225.837C149.562 229.654 148.726 233.942 148.792 238.199C147.12 235.109 145.367 230.997 143.918 227.771C143.001 225.415 141.706 221.906 142.974 219.429C145.575 214.35 152.772 214.294 157.437 212.317C162.99 210.072 167.932 205.475 170.219 199.869C174.981 188.201 169.95 173.543 165.409 162.495Z"/><path fill="#FBC70E" d="M133.006 162.627C133.781 163.878 132.779 166.604 132.257 167.892C124.901 186.057 123.322 198.809 139.704 212.551C132.673 212.201 129.012 211.623 122.388 209.53C121.496 209.169 120.606 208.802 119.72 208.429C109.578 204.14 103.947 194.229 108.829 183.63C113.315 173.891 123.153 166.47 133.006 162.627Z"/><path fill="#2A2848" d="M154.771 239.53C158.297 239.439 157.283 241.909 159.137 242.231C160.762 238.86 163.058 238.907 165.332 241.666C168.017 244.924 162.382 254.883 159.362 247.29C159.009 246.12 159.232 246.203 158.454 245.534C156.976 245.504 155.747 246.089 155.78 247.782C157.084 248.649 158.345 247.555 159.208 248.762L158.966 249.352C157.578 250.481 153.954 250.556 152.543 249.325C152.056 247.625 153.889 244.993 154.768 243.218C154.505 241.936 153.871 243.112 153.058 241.622C153.413 240.537 153.895 240.277 154.771 239.53ZM162.661 247.582C162.923 245.773 163.519 243.44 161.591 242.364C161.498 243.787 161.102 245.836 161.378 247.014C161.972 247.662 161.656 247.483 162.661 247.582Z"/><path d="M161.591 242.364C163.519 243.44 162.923 245.773 162.661 247.582C161.656 247.483 161.972 247.662 161.378 247.014C161.102 245.836 161.498 243.787 161.591 242.364Z"/><path fill="#2A2848" d="M175.479 239.916C177.271 240.136 178.692 240.299 179.576 242.066C181.217 245.346 180.12 248.222 177.094 249.904C171.714 249.518 171.413 242.245 175.479 239.916ZM176.179 247.627C176.865 246.528 177.741 243.075 176.244 242.354C175.422 244.382 174.263 246.035 176.179 247.627Z"/><path d="M176.244 242.354C177.741 243.075 176.865 246.528 176.179 247.627C174.263 246.035 175.422 244.382 176.244 242.354Z"/><path fill="#2D2B5C" d="M123.432 239.732C124.904 239.724 126.502 239.596 127.635 240.432L127.698 241.036C126.24 242.169 124.914 241.076 123.404 242.127C123.915 242.938 125.683 243.492 126.874 244.726L126.754 245.066C124.953 245.287 123.919 244.98 122.957 246.604C123.036 247.649 122.831 247.22 123.584 247.94C123.968 247.933 124.351 247.931 124.734 247.931C126.245 247.934 126.609 247.825 127.657 248.872L127.531 249.32C126.28 249.818 122.225 250.114 120.989 249.527C120.622 247.568 120.848 242.535 120.956 240.394C121.659 239.81 122.48 239.844 123.432 239.732Z"/><path fill="#2A2848" d="M137.975 246.421C139.188 244.671 138.269 243.087 140.807 242.352C141.835 242.054 142.175 241.323 143.523 241.579C145.29 243.011 144.529 247.25 143.873 249.146C142.809 249.812 140.831 249.472 139.541 249.347C139.151 248.227 139.045 247.498 138.126 246.793L138.026 246.716L137.975 246.421ZM142.284 248.449C142.926 246.911 143.108 244.024 141.296 243.223C140.3 245.251 140.029 247.273 142.284 248.449Z"/><path fill="#2A2848" d="M128.402 242.384C130.227 242.224 132.171 242.033 133.975 242.389C133.959 243.381 132.421 243.316 131.795 244.712C132.381 245.473 134.437 246.143 135.413 246.39L135.388 247.196L135.222 247.374C133.74 248.948 132.566 249.656 130.383 249.778C129.2 249.844 128.218 248.494 128.564 247.389C129.799 246.911 130.831 247.509 132.474 247.345L132.284 246.92C131.284 246.077 131.013 246.001 129.775 245.646L129.438 245.552C128.682 244.789 128.615 243.517 128.402 242.384Z"/><path fill="#2A2848" d="M169.842 240.032C172.185 240.672 171.413 247.394 170.512 249.19C170.147 249.918 169.312 250.013 168.636 250.205C168.5 249.066 168.863 246.317 168.991 245.054C168.037 243.682 167.646 243.467 167.648 242.003C168.252 240.986 168.861 240.698 169.842 240.032Z"/><path fill="#2D2B5C" d="M135.413 246.39C135.305 244.512 135.065 242.303 135.857 240.576L136.41 240.268C138.431 240.845 137.366 244.59 137.975 246.421L138.026 246.716C138.067 247.889 138.239 248.604 137.595 249.547L136.867 250.018C135.422 249.618 135.472 248.547 135.388 247.196L135.413 246.39Z"/><path fill="#353275" d="M94.4437 183.507C92.9722 183.176 75.8875 177.196 74.96 176.679C74.7103 176.08 74.4611 175.024 74.6487 174.412C85.0528 140.449 122.71 118.982 155.998 121.926C171.87 123.293 186.999 129.258 199.532 139.089C202.234 141.232 204.297 142.817 206.507 145.453C205.912 146.209 202.396 149.686 201.51 150.524C198.394 153.47 194.059 158.423 190.779 160.963C190.208 161.387 188.992 162.448 188.429 162.503C174.78 149.518 155.53 144.234 137.162 148.431C118.794 152.628 103.752 165.747 97.0993 183.371C96.0221 183.908 95.5967 183.733 94.4437 183.507ZM187.225 153.295C188.718 152.39 189.56 149.729 189.627 148.07C188.312 149.365 187.007 150.342 186.824 152.186L187.225 153.295ZM124.469 139.207C124.877 140.609 125.288 142.86 126.809 143.446C127.901 142.304 126.809 140.362 126.214 139.149C125.255 137.898 125.509 136.493 123.836 135.208C123.356 136.152 124.137 138.111 124.469 139.207ZM89.5118 164.313C89.3298 166.094 89.0476 167.628 90.2737 169.146C92.2237 171.561 95.367 170.846 97.4907 169.052L97.6357 168.32C97.1281 168.241 97.0475 168.362 96.5826 168.561C93.147 170.027 90.7861 166.808 89.5118 164.313ZM100.455 163.487C94.8515 161.457 90.3756 155.898 87.4065 155.209C86.9299 156.259 86.5837 156.715 86.7906 157.83C87.8705 159.934 90.3382 158.909 90.694 161.282L90.0505 162.936C91.975 163.745 96.4089 159.607 97.8889 167.517C99.1293 166.667 99.8074 164.884 100.455 163.487ZM104.552 157.517C101.257 158.627 97.2775 155.405 99.1095 151.051L98.8449 150.976C94.078 155.026 97.4705 159.125 102.511 160.09L104.865 157.985C107.326 155.364 108.798 151.437 104.386 148.815C103.48 148.276 101.72 148.93 100.774 149.386C100.906 150.54 107.899 151.7 104.727 157.217L104.552 157.517ZM107.607 142.644C106.747 143.268 105.88 143.882 105.007 144.488C108.181 147.788 110.052 149.011 114.082 150.837C114.249 149.488 114.336 147.748 115.007 146.622C116.721 145.655 117.524 146.937 119.183 147.837C119.308 146.547 119.644 144.838 118.857 143.838C114.158 144.401 115.073 140.752 112.912 140.014C111.997 140.357 111.983 140.405 111.374 141.21C111.303 142.879 115.079 145.662 112.975 147.814C111.183 147.563 109.185 144.747 108.093 143.297C107.929 143.08 107.768 142.863 107.607 142.644Z"/><path d="M155.358 129.579C158.01 129.966 160.146 130.273 161.729 132.755C162.457 133.876 162.693 135.248 162.38 136.548C161.833 138.729 160.321 139.805 158.567 140.889C151.314 141.659 148.848 133.673 155.358 129.579Z"/><path fill="#353275" d="M156.149 131.56C161.962 131.811 160.687 136.165 157.993 139.393C152.625 139.991 153.054 133.741 156.149 131.56Z"/><path d="M167.177 132.266C168.033 132.511 168.686 132.772 169.51 133.096C169.944 134.421 167.723 138.635 168.966 140.573L169.555 140.573C171.563 139.32 172.038 136.36 173.164 133.84C174.178 134.206 175.656 134.515 176.03 135.49C175.074 137.061 174.483 141.795 174.193 143.777L178.547 139.638L178.295 136.614L178.966 136.289C180.071 136.475 181.218 137.214 182.235 137.766C180.758 139.544 174.774 147.247 172.711 144.566C172.144 143.83 172.16 141.707 172.121 140.708C171.469 141.11 169.612 142.294 169.027 142.417C164.193 143.436 166.673 134.36 167.177 132.266Z"/><path d="M183.48 140.084C185.304 140.976 187.124 142.004 188.978 142.89C194.019 145.3 189.057 150.597 188.363 154.579L188.307 154.917C186.997 153.967 185.563 153.02 184.222 152.1L187.628 149.172C188.893 147.706 190.672 145.484 188.371 143.983C184.975 143.539 183.337 147.662 182.186 150.117L178.892 148.692C181.847 145.247 182.295 144.343 183.48 140.084ZM187.225 153.295C188.718 152.39 189.56 149.729 189.627 148.07C188.312 149.365 187.007 150.342 186.824 152.186L187.225 153.295Z"/><path d="M189.627 148.07C189.56 149.729 188.718 152.39 187.225 153.295L186.824 152.186C187.007 150.342 188.312 149.365 189.627 148.07Z"/><path d="M146.702 126.499L146.916 126.592C147.499 127.336 147.281 127.308 147.244 128.547C147.742 129.335 148.301 129.151 149.556 129.556L149.758 130.101L149.468 130.609C148.679 130.688 148.714 130.696 148.06 131.054C146.84 132.825 147.241 135.39 147.318 137.585C148.546 137.92 149.481 137.966 150.178 138.836L149.853 139.495C148.224 139.388 146.5 139.484 144.861 139.541C144.82 137.219 144.787 134.887 144.748 132.565C144.725 131.203 143.935 131.207 143.016 130.214L143.153 129.692C145.571 128.984 145.532 128.657 146.702 126.499Z"/><path d="M122.064 134.298C126.597 132.961 127.387 132.618 132.021 132.236C133.061 136.077 133.192 137.963 135.875 140.871C134.778 141.078 133.094 141.531 132.112 141.256C130.054 138.515 132.464 131.326 126.326 134.712C125.164 136.344 125.74 137.242 126.214 139.149C125.255 137.898 125.509 136.493 123.836 135.208C123.356 136.152 124.137 138.111 124.469 139.207C123.291 137.318 123.004 135.986 122.064 134.298Z"/><defs><linearGradient id="gradient_0" gradientUnits="userSpaceOnUse" x1="105.81335" y1="150.95364" x2="103.14201" y2="153.13144"><stop offset="0" stop-color="black" stop-opacity="0"/><stop offset="1" stop-color="black" stop-opacity="0.074509807"/></linearGradient></defs><path fill="url(#gradient_0)" d="M104.552 157.517L104.727 157.217C107.899 151.7 100.906 150.54 100.774 149.386C101.72 148.93 103.48 148.276 104.386 148.815C108.798 151.437 107.326 155.364 104.865 157.985L104.552 157.517Z"/><path d="M118.857 143.838L118.885 143.526C119.273 138.809 116.075 139.082 115.515 137.378C116.263 136.823 117.432 136.45 118.33 136.104C119.636 137.28 120.392 145.742 119.183 147.837C119.308 146.547 119.644 144.838 118.857 143.838Z"/><path d="M124.469 139.207C124.137 138.111 123.356 136.152 123.836 135.208C125.509 136.493 125.255 137.898 126.214 139.149C126.809 140.362 127.901 142.304 126.809 143.446C125.288 142.86 124.877 140.609 124.469 139.207Z"/><path fill="#191A21" fill-opacity="0.98431373" d="M188.429 162.503C188.992 162.448 190.208 161.387 190.779 160.963L190.071 162.177C190.445 163.237 196.2 168.459 197.648 170.774C208.421 188.009 210.346 209.031 201.918 227.663C184.096 267.063 127.575 273.52 103.341 236.878C94.8692 224.07 91.1875 214.54 92.166 198.825C92.3216 196.326 94.7836 184.568 94.4437 183.507C95.5967 183.733 96.0221 183.908 97.0993 183.371C87.1587 209.707 98.2427 239.332 123.031 252.681C147.819 266.03 178.661 258.983 195.188 236.194C211.715 213.405 208.826 181.907 188.429 162.503Z"/><path fill="#353275" d="M76.6485 191.861C76.6446 189.158 76.5998 182.281 77.8503 180.147C78.6613 179.557 78.2142 179.689 79.2496 179.786C81.0909 180.973 80.7873 184.462 80.8412 186.505C83.2948 186.442 88.0152 186.023 89.9818 187.05C90.6817 188.029 90.4872 188.409 89.7732 189.333C87.9187 190.052 85.2722 189.338 83.9699 189.831C84.654 191.682 88.1596 191.442 89.4667 192.967C89.6987 194.168 89.4806 196.1 87.8834 196.065C85.7362 196.019 83.8476 196.332 81.7659 196.83C83.9761 197.572 89.3302 197.755 88.1169 200.978C86.1188 201.998 80.4583 199.308 78.2243 198.479C76.5242 199.731 77.8888 201.262 76.0217 202.937C74.9703 202.903 75.4231 203.065 74.5974 202.485C74.2343 201.308 75.2488 197.034 75.5038 195.605C75.8356 194.289 75.5697 194.538 76.421 193.753C77.583 193.387 79.4749 193.916 81.186 193.89C79.7562 193.226 78.1048 192.408 76.6485 191.861Z"/><path fill="#2A2848" d="M78.2243 198.479C76.5242 199.731 77.8888 201.262 76.0217 202.937C74.9703 202.903 75.4231 203.065 74.5974 202.485C74.2343 201.308 75.2488 197.034 75.5038 195.605C75.5057 196.533 75.3695 197.238 75.9207 197.918L76.199 197.918C77.0885 197.924 77.5847 197.819 78.2243 198.479Z"/><path d="M79.7767 191.12C82.0316 191.197 83.1671 192.028 84.495 193.812C83.0285 193.848 80.7597 192.141 79.7767 191.12Z"/><path fill="#2D2B5C" d="M118.041 261.757C120.328 261.478 122.482 261.431 124.477 262.88C126.049 264.022 127.73 266.778 126.355 268.559C124.691 268.209 124.585 265.732 123.414 264.794C118.886 261.169 111.854 269.276 117.066 272.89C118.763 274.067 121.417 274.416 122.758 272.61C122.422 271.88 122.602 272.126 121.639 271.738C120.268 271.282 119.286 271.099 118.624 269.814C119.735 268.26 123.963 270.103 125.238 270.936C126.095 273.025 123.354 276.143 121.843 276.355C112.07 277.727 107.834 265.551 118.041 261.757Z"/><path fill="#353275" d="M87.4467 203.636L88.0299 203.929C88.8932 205.83 85.3612 207.918 85.2341 210.408C85.1845 211.377 87.4346 212.799 88.3658 214.137L88.252 214.549C86.1096 215.016 81.0517 213.161 78.8008 212.395C78.3243 212.77 77.7066 213.893 77.3634 214.45C76.3928 214.983 76.7625 214.962 75.8274 214.806C74.6956 213.343 75.1406 209.256 75.126 207.083C82.5695 207.176 82.2417 204.524 87.4467 203.636Z"/><path fill="#2D2B5C" d="M140.482 275.409C141.186 273.763 141.61 272.049 143.392 271.452L144.105 271.814C145.471 273.772 145.516 276.018 145.808 278.377C146.284 276.847 147.432 272.653 148.676 271.807C149.99 270.914 149.342 272.612 151.725 273.049C151.345 273.547 151.002 274.021 150.572 274.48C147.667 275.582 148.229 281.269 145.274 282.329L144.644 281.925C143.471 280.09 143.055 277.427 142.62 275.27C141.923 277.425 140.792 280.082 139.934 282.239C138.595 280.338 135.388 273.088 138.26 271.802C139.76 272.541 140.031 273.926 140.482 275.409Z"/><path fill="#353275" d="M213.498 207.325C215.919 207.383 223.949 208.685 227.081 209.014C227.903 213.833 227.014 216.493 221.876 215.293C220.301 214.925 219.107 213.734 218.077 213.723C216.879 214.414 213.158 217.039 212.342 217.096C211.941 216.371 212.001 216.246 212.037 215.379C213.446 212.381 218.653 213.449 218.922 210.144C217.238 209.11 214.945 210.502 213.628 210.218C213.143 209.133 213.395 208.643 213.498 207.325ZM225.904 213.163C226.235 211.992 226.306 212.398 225.862 211.483C224.428 210.572 222.439 210.78 220.726 210.792C220.677 211.923 220.61 212.188 221.193 213.135C222.653 214.371 224.242 213.743 225.904 213.163Z"/><path fill="#2D2B5C" d="M174.936 266.631C179.145 266.504 185.364 273.639 181.019 276.103C178.577 277.488 174.801 279.468 173.025 276.363C173.371 270.554 176.468 272.015 177.465 269.602L177.007 268.889C174.739 268.231 174.119 271.623 171.693 271.821L171.23 271.302C171.07 269.583 173.608 267.511 174.936 266.631ZM176.341 276.641C177.617 275.728 179.371 273.994 179.015 272.288C178.575 271.865 178.783 271.957 178.226 271.825C176.049 273.062 174.301 274.096 176.341 276.641Z"/><path fill="#353275" d="M85.8743 217.299C87.1858 217.396 88.5321 217.494 89.7928 217.883C91.7569 218.489 92.1419 222.391 91.3988 223.98C90.5588 224.642 90.4361 224.833 89.4269 225.019C87.8829 224.114 88.9001 222.316 88.0956 220.23L87.5771 220.079C85.9708 220.894 83.1866 225.45 81.6314 227.356C80.8584 228.529 80.7782 228.904 79.3645 228.653C77.5346 227.225 76.0976 221.674 77.1801 219.731L78.2598 219.512C79.1165 219.885 80.8265 223.538 81.5457 224.807C82.657 221.869 83.3023 219.078 85.8743 217.299Z"/><path fill="#353275" d="M151.725 273.049C158.124 266.817 160.322 275.672 160.459 280.736C157.143 281.811 152.727 283.504 150.228 279.784C149.828 276.541 155.622 276.645 157.088 274.508C155.724 272.539 153.104 275.088 150.572 274.48C151.002 274.021 151.345 273.547 151.725 273.049ZM153.948 280.347C155.39 280.22 157.472 279.946 157.266 278.087C157.028 277.845 156.83 277.594 156.556 277.43C155.364 277.708 154.361 277.815 153.422 278.56C153.173 279.371 153.233 279.746 153.948 280.347Z"/><path fill="#2D2B5C" d="M214.358 165.256C212.222 166.966 208.631 168.972 206.372 170.76C205.994 171.059 204.977 171.16 204.339 170.957L204.272 170.511C205.461 168.711 214.169 164.335 216.427 163.738L216.694 164.124C216.484 166.41 212.334 173.243 211.054 175.58C213.46 174.01 215.641 173.065 217.939 171.447C218.917 170.757 219.223 170.742 220.253 170.928C220.456 173.57 209.779 175.448 210.479 179.371L211.165 179.762C210.544 180.019 210.229 180.073 209.851 180.625C209.559 179.637 209.231 176.75 209.084 175.649C211.089 171.932 212.643 169.141 214.358 165.256Z"/><path fill="#2D2B5C" d="M206.497 150.3C207.141 150.837 208.385 152.453 208.966 153.171C206.499 154.603 199.3 159.049 200.132 162.107C203.836 165.942 208.355 160.294 211.686 158.113C212.568 158.133 212.289 158.128 213.14 158.873L212.974 159.309C210.121 161.712 205.987 164.507 202.342 165.248C198.009 163.57 197.844 162.452 199.147 158.256C202.4 155.355 204.446 154.146 206.497 150.3Z"/><path fill="#353275" d="M104.341 255.962C105.696 256.423 106.061 257.934 106.574 259.168C107.907 259.347 109.507 259.458 110.867 259.588C110.88 259.576 110.068 260.291 110.11 260.264C108.011 261.586 107.982 264.395 106.731 265.561C105.788 265.631 105.288 265.162 104.455 264.638C103.497 265.232 102.449 266.19 101.461 265.441C101.357 264.212 101.839 263.4 102.326 262.242C101.058 261.533 99.9782 260.744 98.7933 259.909C100.311 259.717 101.831 259.535 103.351 259.362L104.341 255.962Z"/><path fill="#353275" d="M212.811 219.919C213.886 219.993 215.131 219.962 215.782 220.872C214.611 221.659 212.784 220.315 211.796 221.881C211.712 222.645 211.736 223.306 212.213 223.941C214.083 226.428 217.585 222.52 218.938 221.226C223.762 221.805 225.333 223.207 223.622 228.018C222.263 228.634 221.737 228.835 220.366 228.2C220.444 226.773 222.605 226.627 222.4 224.26C221.785 223.485 221.725 223.486 220.78 223.104C219.172 223.5 217.869 225.672 215.874 226.456C212.39 227.826 210.177 223.676 211.153 220.8C211.382 220.126 212.124 220.112 212.811 219.919Z"/><path fill="#353275" d="M197.369 253.509C199.281 256.255 198.61 255.835 202.344 256.13C201.031 256.916 200.261 257.499 199.047 258.444C199.503 259.788 200.178 261.198 200.04 262.524L199.66 262.798C198.478 262.477 197.861 261.628 196.977 260.721C195.553 261.161 195.797 261.656 194.303 262.676L193.958 262.499C193.727 261.208 194.072 260.012 194.331 258.718C193.649 258.048 192.991 257.581 192.788 256.69C193.651 255.63 195.167 256.229 197.369 253.509Z"/><path fill="#2D2B5C" d="M180.644 261.26C183.82 262.368 184.073 267.477 185.632 270.016C186.244 271.013 188.009 271.239 188.663 272.443L188.205 273.13C187.623 273.294 186.409 273.677 185.906 273.44C183.818 272.455 181.921 268.68 181.064 266.707C180.079 264.437 179.749 263.52 180.644 261.26Z"/><path fill="#2D2B5C" d="M163.39 273.329C164.279 275.397 165.076 279.444 163.582 281.303C163.246 281.218 162.79 281.226 162.666 280.9C161.852 278.768 158.697 268.509 160.806 267.219C161.998 267.811 162.26 268.359 162.404 269.656C162.132 271.171 162.634 271.978 163.39 273.329Z"/><path fill="#353275" d="M200.095 242.8C202.598 243.575 203.265 245.887 205.049 246.676C206.078 247.131 210.985 247.671 212.376 247.849L212.585 248.322C212.296 249.267 212.202 249.3 211.47 250.015C210.401 249.823 207.744 249.469 206.823 249.194C205.272 248.732 199.096 245.756 198.377 244.54C198.702 243.801 199.449 243.323 200.095 242.8Z"/><path fill="#2A2848" d="M162.404 269.656L163.098 270.242C164.807 270.041 166.7 268.872 168.143 270.098C169.922 271.61 171.418 276.737 169.939 278.679L169.439 278.684C167.794 276.682 168.334 273.02 166.173 271.638C164.942 271.587 164.017 272.255 163.39 273.329C162.634 271.978 162.132 271.171 162.404 269.656Z"/><path fill="#353275" d="M209.172 227.317C213.325 229.115 215.956 230.868 220.497 232.432L220.746 233.043C220.587 234.197 220.296 234.574 219.72 235.552C216.334 232.829 212.58 230.035 208.179 230.438L208.002 230.193C208.043 229.151 208.658 228.268 209.172 227.317Z"/><path fill="#353275" d="M211.165 179.762C214.524 178.837 217.628 177.59 220.914 176.48C221.619 176.242 223.099 176.478 223.189 177.532C221.955 178.824 215.19 180.161 213.365 181.484C212.666 181.99 211.375 182.833 210.517 182.881C209.973 182.202 209.98 181.512 209.851 180.625C210.229 180.073 210.544 180.019 211.165 179.762Z"/><path fill="#2D2B5C" d="M126.812 278.527C124.095 275.683 127.05 268.474 129.89 269.014C130.496 270.331 128.519 275.125 128.171 276.949C127.901 278.021 128.069 278.246 126.812 278.527Z"/><path fill="#2D2B5C" d="M215.291 242.377C213.304 241.394 205.889 237.506 205.06 235.588L205.302 235.231C207.921 234.979 213.568 239.045 215.682 240.634C215.922 241.184 215.926 241.157 215.976 241.751L215.291 242.377Z"/><path fill="#353275" d="M212.579 190.08C212.812 188.034 222.4 181.979 223.961 182.143C224.436 182.771 224.389 182.889 224.393 183.664C223.655 185.16 222.015 184.966 220.526 185.751C218.72 186.703 217.185 187.982 215.587 189.238C214.416 189.678 213.844 190.044 212.579 190.08Z"/><path fill="#353275" d="M213.353 196.343C213.818 196.135 213.848 196.011 214.235 196.094C216.552 196.592 225.384 195.305 226.803 196.379L226.762 196.88C225.909 197.557 225.967 197.704 224.726 197.562L224.37 197.519C222.974 197.39 220.828 197.209 219.574 197.996C218.191 198.351 217.969 198.389 216.511 198.387C215.778 198.323 215.046 198.249 214.315 198.164C213.45 197.385 213.72 197.638 213.353 196.343Z"/><path fill="#2D2B5C" d="M185.082 262.183C188.464 262.303 192.498 268.968 191.249 271.753C189.719 271.387 186.298 264.937 184.84 263.122L185.082 262.183Z"/><path fill="#353275" d="M132.021 277.498C132.312 275.914 133.207 271.42 134.413 270.475C136.624 271.148 135.604 278.993 132.097 279.868L131.769 279.952L132.021 277.498Z"/><path fill="#191A21" d="M212.579 190.08C213.844 190.044 214.416 189.678 215.587 189.238C217.596 190.787 225.438 189.72 226.507 190.499L226.395 190.946C223.905 192.329 215.518 190.837 212.579 190.08Z"/><path fill="#2A2848" d="M215.682 240.634C217.035 239.813 217.06 238.945 218.427 238.194C219.275 239.618 215.428 246.254 212.984 245.57C212.975 244.223 214.35 243.23 215.291 242.377L215.976 241.751C215.926 241.157 215.922 241.184 215.682 240.634Z"/><path fill="#2A2848" fill-opacity="0.98823529" d="M204.725 249.93C206.158 250.498 207.853 251.294 208.82 252.506C209.001 253.597 208.913 253.29 208.229 254.517L207.091 255.307L206.556 255.186C205.831 254.142 205.195 251.375 204.725 249.93Z"/><path fill="#2D2B5C" d="M128.171 276.949C129.637 277.682 130.374 278.097 132.021 277.498L131.769 279.952C129.606 279.574 128.767 279.546 126.812 278.527C128.069 278.246 127.901 278.021 128.171 276.949Z"/><path fill="#353275" fill-opacity="0.98823529" d="M219.574 197.996C220.828 197.209 222.974 197.39 224.37 197.519C219.79 198.484 222.203 200.072 220.313 201.682C219.243 199.999 219.915 199.607 219.574 197.996Z"/><path fill="#2D2B5C" d="M213.353 196.343C213.72 197.638 213.45 197.385 214.315 198.164C215.046 198.249 215.778 198.323 216.511 198.387L216.276 198.43C215.125 198.654 214.884 198.51 214.398 199.238C214.25 201.048 215.986 202.035 215.082 203.5C212.925 203.577 213.239 197.831 213.353 196.343Z"/><path fill="#191A21" d="M88.619 239.138C89.5675 238.347 96.9962 234.711 98.9759 233.596L99.7275 233.753C100.512 234.994 99.7871 236.517 100.381 237.932C101.139 239.738 102.74 240.785 103.352 242.615C103.753 243.582 104.223 244.639 104.552 245.623C103.914 248.934 103.693 249.819 101.854 252.683C101.145 252.994 100.936 253.126 100.147 253.212L99.8058 252.678L99.4785 252.588C98.031 251.687 90.5597 254.431 89.2318 249.333C88.5451 247.38 88.8745 245.142 88.065 243.563L88.3049 243.11C87.8701 242.269 87.6044 242.378 86.5626 241.926C86.3319 241.889 86.3085 241.819 86.0865 241.659C86.2431 241.135 88.0292 239.88 88.619 239.138ZM92.1074 246.682C93.8942 246.349 94.538 246.09 96.185 246.94C97.1353 248.581 97.4226 249.667 99.4504 249.511C101.018 248.573 101.248 247.403 101.777 245.712C100.787 242.129 98.8794 241.753 95.5619 242.043C92.9172 243.329 92.661 243.82 92.1074 246.682Z"/><path fill="#DBA627" d="M90.5979 243.235C91.1988 242.184 92.9416 241.412 94.0236 240.895C94.5501 241.447 94.8325 241.88 95.5619 242.043C92.9172 243.329 92.661 243.82 92.1074 246.682L90.6614 246.617C90.7872 245.182 90.7298 244.655 90.5979 243.235Z"/><path fill="#363333" d="M89.2318 249.333C89.3016 246.754 87.8943 244.603 90.5979 243.235C90.7298 244.655 90.7872 245.182 90.6614 246.617L92.1074 246.682C93.8942 246.349 94.538 246.09 96.185 246.94C97.1353 248.581 97.4226 249.667 99.4504 249.511C101.018 248.573 101.248 247.403 101.777 245.712C101.59 248.619 101.571 249.493 100.193 251.968L99.8058 252.678L99.4785 252.588C98.031 251.687 90.5597 254.431 89.2318 249.333Z"/><path fill="#FBC70E" d="M92.1074 246.682C93.8942 246.349 94.538 246.09 96.185 246.94C96.5401 248.609 96.8148 249.314 95.4552 250.471C93.0208 250.952 91.2793 248.732 90.6614 246.617L92.1074 246.682Z"/><path fill="#FBC70E" d="M97.8625 236.469L98.1855 235.155L98.7639 234.873C100.478 235.918 98.4135 237.901 99.8718 239.311C101.015 240.416 102.216 241.511 103.352 242.615C103.753 243.582 104.223 244.639 104.552 245.623C103.914 248.934 103.693 249.819 101.854 252.683C101.145 252.994 100.936 253.126 100.147 253.212L99.8058 252.678L100.193 251.968C101.571 249.493 101.59 248.619 101.777 245.712C100.787 242.129 98.8794 241.753 95.5619 242.043C94.8325 241.88 94.5501 241.447 94.0236 240.895C96.385 239.301 96.733 239.044 97.8625 236.469Z"/><path fill="#6A675E" d="M88.619 239.138C89.5675 238.347 96.9962 234.711 98.9759 233.596L99.7275 233.753C100.512 234.994 99.7871 236.517 100.381 237.932C101.139 239.738 102.74 240.785 103.352 242.615C102.216 241.511 101.015 240.416 99.8718 239.311C98.4135 237.901 100.478 235.918 98.7639 234.873L98.1855 235.155L97.8625 236.469C93.5835 237.191 90.3606 239.872 86.5626 241.926C86.3319 241.889 86.3085 241.819 86.0865 241.659C86.2431 241.135 88.0292 239.88 88.619 239.138Z"/><path fill="#2D2B5C" d="M83.8462 239.462L84.8512 238.449C85.7586 239.333 85.6878 239.526 86.831 239.847C87.6735 239.604 87.8399 239.541 88.619 239.138C88.0292 239.88 86.2431 241.135 86.0865 241.659C86.3085 241.819 86.3319 241.889 86.5626 241.926C87.6044 242.378 87.8701 242.269 88.3049 243.11L88.065 243.563C84.4142 244.766 83.4881 246.453 85.27 250.096C86.4801 252.57 90.7086 254.659 91.3051 256.209L90.8082 257.066C87.0232 257.522 86.1636 256.854 83.0802 255.142C82.2863 254.488 82.2901 254.701 82.0564 253.888C79.6608 247.735 81.4697 245.603 85.7048 241.206L83.8462 239.462Z"/><path fill="#353275" d="M68.2583 224.693C69.9333 231.97 73.7079 239.83 77.2275 246.432C76.2279 245.78 76.1333 245.818 75.1023 246.113C72.7417 245.587 69.5571 245.529 66.4771 244.847C67.1691 242.46 70.1614 238.658 69.4877 237.058C67.7002 235.844 64.7146 235.923 62.5008 235.784C63.8657 232.712 67.1856 229.647 67.4113 228.521C68.4847 227.822 68.2011 225.997 68.2583 224.693Z"/><path d="M215.184 269.62C216.64 270.077 217.404 271.925 217.681 273.312C218.306 276.445 213.884 276.036 212.239 277.311C211.629 277.784 211.289 279.226 210.761 279.829C209.528 281.255 208.632 280.129 206.856 280.379C205.474 281.662 205.062 284.628 203.415 284.871C202.838 284.334 202.525 283.931 201.766 283.73C200.902 284.15 200.272 285.46 199.503 286.271C197.917 287.945 196.861 286.347 195.689 287.068C192.865 288.805 193.243 290.605 189.694 290.665L189.321 290.67C188.3 291.187 187.795 292.06 187.087 292.995C185.426 293.037 183.648 293.618 182.027 294.064L181.519 293.764C180.942 292.232 182.224 289.913 183.195 288.727L183.583 288.709C183.662 289.924 183.221 291.429 182.937 292.661C184.712 289.92 185.989 287.759 188.449 285.534C188.028 287.028 186.559 290.37 186.561 291.375C187.427 291.025 187.548 290.596 188.185 289.779C189.274 287.86 191.18 284.151 193.629 283.927C193.614 285.942 191.43 286.513 190.463 288.525L190.705 288.931C194.615 289.354 196.645 282.743 198.826 280.382C199.33 281.232 197.463 284.556 197.483 285.716L198.142 285.929C201.744 284.521 202.078 277.992 204.685 277.139L204.945 277.539C204.826 278.665 203.451 281.401 202.929 282.716C207.57 279.412 208.135 275.644 210.498 274.098C211.1 274.463 211.506 274.833 212.039 275.282C212.934 275.225 212.619 275.288 213.426 274.436C214.327 274.743 214.432 274.844 215.301 274.6C215.973 273.731 215.859 274.11 215.971 273.089C215.458 272.615 214.947 272.139 214.44 271.66C214.366 270.758 214.693 270.525 215.184 269.62Z"/><path d="M139.584 300.043C137.868 300.081 133.968 300.708 132.697 299.936C130.675 298.706 129.212 299.489 127.843 297.622C127.757 294.429 134.737 292.385 135.848 296.756L136.442 297.116C138.112 296.262 141.724 294.372 142.981 296.589C142.975 300.325 137.361 303.521 134.458 304.893C136.196 302.172 136.807 301.76 139.584 300.043Z"/><path fill="#353275" d="M135.848 296.756L136.442 297.116L136.131 298.261C135.475 298.786 135.326 298.872 134.518 299.034L132.008 299.543C133.55 298.396 134.401 298.246 135.848 296.756Z"/><path d="M100.776 283.31C103.387 283.756 104.223 283.841 106.122 285.72L106.29 286.225C107.599 286.645 108.835 286.123 110.53 286.48C111.621 287.734 111.451 288.64 111.334 290.337C111.285 291.057 111.227 291.775 111.16 292.493C108.36 291.868 106.071 291.826 104.81 288.913L104.048 288.661C101.846 288.272 100.255 287.623 98.3014 286.566C99.9887 285.249 98.6365 284.746 100.776 283.31Z"/><path d="M104.81 288.913C106.267 286.117 107.664 286.597 110.53 286.48C111.621 287.734 111.451 288.64 111.334 290.337C111.285 291.057 111.227 291.775 111.16 292.493C108.36 291.868 106.071 291.826 104.81 288.913Z"/><path fill="#353275" d="M106.122 285.72L106.29 286.225C107.599 286.645 108.835 286.123 110.53 286.48C107.664 286.597 106.267 286.117 104.81 288.913L104.048 288.661C104.309 288.421 104.204 288.58 104.289 288.143C102.997 287.599 102.03 287.189 101.153 286.086C101.867 285.009 104.394 286.522 106.122 285.72Z"/><path d="M86.074 270.767C88.193 270.436 90.3627 270.744 92.3057 271.652C93.9825 272.455 96.6816 274.676 95.4185 276.661C93.3429 276.66 92.6719 274.283 91.0423 273.115C90.1693 272.49 88.8491 271.958 87.8543 271.531C89.1312 274.154 90.9139 276.079 92.7632 278.321C90.6907 277.305 88.6083 276.308 86.5164 275.332C85.6239 274.963 84.3958 274.265 83.6304 275.028C84.5677 277.182 89.4097 278.76 91.0303 280.7C87.7493 281.937 80.1686 275.877 82.8963 273.311C84.8502 272.766 86.1923 273.539 88.0879 274.253C87.2464 273.088 86.1403 272.11 86.074 270.767Z"/><path d="M179.599 285.582C180.154 285.892 179.932 285.662 180.149 286.407C179.203 288.837 176.611 288.691 174.563 289.969C173.85 290.414 172.398 291.709 171.739 292.285C174.038 291.753 177.427 290.722 179.11 292.741C179.567 296.07 173.036 298.572 170.609 299.363C169.717 298.961 169.844 298.583 169.744 297.764C170.2 296.712 169.897 297.026 170.818 296.456C174.117 296.734 175.844 294.931 178.674 292.95C176.334 293.033 173.249 293.41 170.862 293.643L170.542 290.44C173.976 287.566 175.451 286.822 179.599 285.582Z"/><path d="M119.2 295.877C118.318 296.016 117.23 295.682 116.659 294.98C115.174 293.155 113.15 294.557 112.178 292.348C112.513 290.06 115.785 289.057 117.934 290.524L117.867 292.095C119.435 291.682 119.239 291.495 120.643 291.861C121.106 292.605 121.05 292.903 122.03 292.982C121.353 293.376 121.034 293.415 120.932 294.36C120.339 294.916 119.828 295.361 119.2 295.877Z"/><path fill="#353275" d="M120.643 291.861C121.106 292.605 121.05 292.903 122.03 292.982C121.353 293.376 121.034 293.415 120.932 294.36C120.339 294.916 119.828 295.361 119.2 295.877C118.6 294.769 118.526 294.864 118.796 293.913C119.713 293.219 120.314 292.935 120.643 291.861Z"/><path fill="#2D2B5C" d="M117.934 290.524L117.867 292.095C117.045 292.853 115.444 292.772 114.424 292.623L114.349 292.347C115.759 291.23 116.944 291.651 117.934 290.524Z"/><path d="M96.8389 286.358C94.9206 285.938 95.3058 285.484 95.0431 283.814C94.8494 282.582 93.0328 283.512 91.8985 282.537C91.4678 280.456 92.7902 279.159 94.8526 279.251C95.8828 279.749 96.3252 280.594 97.0089 281.551L99.9595 282.363L100.776 283.31C98.6365 284.746 99.9887 285.249 98.3014 286.566C97.8501 286.29 97.386 286.36 96.8389 286.358Z"/><path fill="#353275" d="M99.9595 282.363L100.776 283.31C98.6365 284.746 99.9887 285.249 98.3014 286.566C97.8501 286.29 97.386 286.36 96.8389 286.358C97.6647 282.861 98.9721 284.128 99.9595 282.363Z"/><path d="M162.451 294.453C164.551 295.774 163.128 296.03 163.478 297.923C163.598 298.578 164.099 298.095 164.563 299.123C164.118 299.92 162.926 300.264 162.007 300.667C161.118 302.114 160.497 303.332 158.998 304.195L158.665 303.987C158.769 302.779 159.475 301.907 160.135 300.846C160.561 299.447 161.867 296.636 162.488 295.189C159.935 297.565 159.592 299.714 158.131 300.589L157.702 300.379C157.381 297.529 160.223 295.542 162.451 294.453Z"/><path d="M156.062 295.564L156.677 295.914C156.892 296.876 155.332 299.476 154.753 300.668C153.367 300.238 152.198 300.388 150.869 300.856L150.561 300.967L149.714 300.728C149.219 299.033 150.551 297.272 152.029 296.411C152.479 296.149 153.113 296.59 153.583 296.807C154.769 296.722 154.958 296.323 156.062 295.564Z"/><path d="M122.03 292.982C123.458 291.933 123.526 291.756 125.177 292.571C125.774 292.859 126.369 293.151 126.962 293.446C125.586 295.02 125.28 294.91 125.906 297.038L125.684 297.615C123.082 298.157 123.141 296.207 123.45 294.358L123.198 294.034C122.161 294.05 121.938 294.096 120.932 294.36C121.034 293.415 121.353 293.376 122.03 292.982Z"/><path d="M149.26 293.816L149.837 293.939C150.751 295.452 147.094 297.075 146.669 299.167C146.91 300.168 147.138 300.653 146.815 301.622C142.668 299.502 147.241 295.968 149.26 293.816Z"/><path fill="#353275" d="M290.304 138.743C296.544 132.695 306.582 129.003 315.17 128.161C334.188 126.298 344.931 137.373 346.275 155.807C347.21 156.309 348.25 156.188 349.352 156.196C349.151 158.257 348.971 163.85 349.15 165.918C349.111 170.447 349.36 179.309 348.972 183.359C349.044 193.049 349.054 202.74 349.001 212.431C346.812 212.445 344.192 212.532 342.042 212.359C338.706 209.9 337.489 207.311 333.582 204.909C330.078 208.282 324.663 211.356 319.885 212.421C297.368 217.439 283.418 193.385 277.683 175.403C276.656 172.184 275.728 168.543 275.268 165.246C279.244 166.983 280.126 168.182 281.811 172.357C283.416 176.334 284.249 179.817 286.515 183.544C287.751 184.844 288.282 185.836 289.212 187.378C289.336 175.174 292.959 166.24 304.561 160.291C312.359 156.291 321.324 156.171 329.136 160.112C331.068 161.087 333.514 163.726 335.536 164.404L335.645 164.063C333.414 162.538 333.264 158.068 334.733 156.393C335.618 156.213 335.961 156.17 336.778 155.814L336.928 155.273C335.997 152.302 335.053 148.621 333.193 146.106C325.162 135.244 308.305 136.145 298.547 143.99C296.167 145.903 294.857 150.62 290.831 150.013C289.793 148.593 290.248 140.846 290.304 138.743ZM300.859 173.047C297.069 180.987 296.145 186.677 300.794 194.601C306.248 200.56 310.5 203.868 318.787 202.976C319.773 202.661 321.104 202.163 322.014 201.686C325.82 199.706 328.672 196.282 329.933 192.182C331.342 187.588 330.874 182.623 328.631 178.374C325.975 173.399 322.942 171.215 317.78 169.642C319.028 176.465 315.461 183.722 307.123 182.272C304.756 181.86 303.25 179.008 302.278 176.972C301.398 175.421 301.29 174.793 300.859 173.047Z"/><path fill="#FBC70E" d="M346.014 205.465L346.045 170.479C346.076 166.489 346.082 162.514 345.979 158.526C345.953 157.547 346.881 156.234 347.937 156.157C349.72 157.369 348.829 161.72 348.898 163.864C349.105 170.248 348.503 177.008 348.972 183.359C349.044 193.049 349.054 202.74 349.001 212.431C346.812 212.445 344.192 212.532 342.042 212.359C338.706 209.9 337.489 207.311 333.582 204.909C330.078 208.282 324.663 211.356 319.885 212.421C297.368 217.439 283.418 193.385 277.683 175.403C276.656 172.184 275.728 168.543 275.268 165.246C279.244 166.983 280.126 168.182 281.811 172.357C283.416 176.334 284.249 179.817 286.515 183.544C289.831 190.452 296.405 197.502 303.306 200.932C304.591 198.275 301.418 197.359 300.794 194.601C306.248 200.56 310.5 203.868 318.787 202.976C319.773 202.661 321.104 202.163 322.014 201.686C325.82 199.706 328.672 196.282 329.933 192.182C331.342 187.588 330.874 182.623 328.631 178.374C325.975 173.399 322.942 171.215 317.78 169.642C319.028 176.465 315.461 183.722 307.123 182.272C304.756 181.86 303.25 179.008 302.278 176.972C301.986 175.626 301.648 174.197 301.39 172.853C303.551 168.912 305.183 166.018 309.929 164.731C315.738 163.157 322.483 163.972 327.716 166.902C333.169 169.955 337.153 175.086 338.757 181.125C340.351 186.934 339.466 192.931 337.845 198.629L346.014 205.465Z"/><path fill="#191A21" d="M300.794 194.601C306.248 200.56 310.5 203.868 318.787 202.976C313.824 204.909 307.783 203.427 303.306 200.932C304.591 198.275 301.418 197.359 300.794 194.601Z"/><path fill="#FBC70E" d="M334.733 156.393C335.863 156.495 336.569 156.325 337.339 157.148C338.283 158.158 337.9 161.679 337.63 162.999C336.547 163.025 335.861 163.187 335.031 162.557C333.789 160.837 334.23 158.371 334.733 156.393Z"/><path fill="#353275" d="M547.508 149.817L547.849 150.452C547.404 155.209 544.57 160.33 540.979 163.435C534.361 169.156 527.868 168.112 519.973 167.523C521.036 179.635 524.53 194.655 526.279 207.357C523.303 207.112 520.168 207.125 517.17 207.091C515.757 196.673 513.357 187.328 512.23 176.395C508.596 186.533 505.116 196.726 501.793 206.971C498.75 206.909 495.705 206.916 492.662 206.991C490.093 196.735 485.11 186.645 482.546 175.359C481.506 179.715 480.643 186.323 479.893 190.901C478.864 196.289 477.987 202.067 477.022 207.514C474.756 207.409 470.318 207.083 468.273 207.406C468.481 206.163 468.596 204.837 468.68 203.576C469.536 190.835 471.818 178.345 474.058 165.769C468.502 165.8 461.911 165.561 456.477 165.931C456.592 163.435 456.646 158.665 456.433 156.306C465.34 156.633 476.387 156.334 485.465 156.34C485.963 158.758 487.444 162.553 488.307 165.007C489.992 169.731 491.585 174.486 493.087 179.271C495.478 169.35 499.057 159.982 510.331 157.659C521.187 155.422 533.631 160.224 543.428 153.761C544.386 153.129 546.541 150.759 547.508 149.817ZM497.599 191.498C497.991 190.882 504.96 169.544 504.952 169.516L504.18 169.268C498.361 173.676 494.586 184.7 497.599 191.498Z"/><path fill="#353275" d="M424.784 156.239C434.637 156.558 445.146 156.157 455.146 156.346C454.894 158.956 455.002 163.031 455.001 165.76L449.673 165.559C455.576 178.842 460.383 194.742 466.464 207.519C462.813 207.416 459.055 207.565 455.299 207.462C454.608 205.452 453.864 202.031 453.35 199.908C453.206 199.32 453.056 198.971 452.845 198.411C451.279 197.032 436.131 197.948 432.229 197.529C430.427 200.945 429.072 204.347 427.695 207.946C424.59 207.844 421.484 207.823 418.378 207.882C419.46 203.419 422.21 197.082 423.956 192.607C427.511 183.712 430.889 174.748 434.088 165.72C430.881 165.668 428.039 165.727 424.831 165.847C425.066 163.421 425.026 158.666 424.784 156.239ZM435.684 188.056C437.995 188.081 440.307 188.085 442.618 188.068L448.381 188.115C447.446 185.485 443.368 173.493 441.875 172.107C440.263 176.488 436.816 184.22 435.684 188.056Z"/><path fill="#353275" d="M384.709 156.317L420.435 156.292C420.168 159.392 420.209 162.79 420.183 165.924C416.615 165.606 404.213 165.479 401.288 166.312C395.34 168.005 412.44 181.912 413.665 183.064C422.564 191.432 422.687 201.493 411.223 207.539C401.63 211.12 393.62 207.969 389.392 198.592C390.829 197.186 394.248 194.197 396.099 193.688C396.749 193.956 399.166 196.928 399.9 197.729C403.024 201.137 413.922 199.492 410.436 193.108C409.217 190.878 406.398 188.655 404.479 186.885C400.299 183.029 395.734 179.082 392.747 174.184C391.139 171.538 391.009 168.688 390.776 165.683C388.827 165.755 386.878 165.84 384.93 165.936C384.946 163.267 385.067 158.802 384.709 156.317Z"/><path fill="#353275" d="M350.35 156.246C360.632 156.751 372.865 156.125 383.377 156.312C383.199 158.631 383.222 163.42 383.398 165.868C379.345 165.713 369.597 165.06 365.79 166.921C363.635 167.975 367.228 172.332 368.145 173.116C373.862 179.828 383.854 184.255 384.222 194.133C384.554 203.038 378.182 208.614 369.604 208.792C365.268 208.862 361.091 207.166 358.033 204.094C356.349 202.419 355.224 200.585 354.151 198.488C356.626 196.27 358.479 194.899 361.398 193.244C362.582 195.814 364.108 198.698 366.956 199.473C372.492 200.979 378.861 198.854 374.238 192.192C369.214 184.951 361.007 180.99 356.759 173.268C356.078 171.994 356.051 167.116 356.021 165.456C354.545 165.519 352.287 165.548 350.882 165.743L350.442 165.266C350.289 164.187 350.178 157.247 350.35 156.246Z"/><path fill="#353275" d="M298.391 213.301C299.379 213.213 300.973 213.218 302.011 213.186C302.853 224.032 302.035 236.537 302.334 247.488C302.392 249.62 304.72 251.801 304.374 254.183C303.215 255.697 299.349 255.085 297.703 254.664C295.931 254.21 295.675 253.454 294.835 251.977C290.083 255.747 287.82 256.27 281.904 254.341C275.163 250.918 273.895 244.919 275.47 237.963C277.667 228.252 286.009 226.649 294.314 228.813L294.251 219.377C293.237 218.571 292.079 217.783 291.601 216.6C291.6 213.76 296.182 213.607 298.391 213.301ZM289.9 250.465C291.698 249.965 292.581 249.79 293.67 248.023C295.221 245.505 294.54 236.725 294.074 233.99C291.713 232.577 290.92 232.121 288.161 232.097C282.455 234.387 283.051 242.522 284.241 247.512C284.792 249.823 287.836 250.313 289.9 250.465Z"/><path fill="#353275" d="M321.068 227.839C325.199 228.012 328.704 228.564 331.598 231.582C337.61 237.849 336.209 250.836 327.618 254.255C324.704 255.414 323.419 255.411 320.44 255.389C316.51 255.087 313.396 254.103 310.405 251.588C302.687 245.099 305.227 232.342 314.582 228.92C316.912 228.068 318.66 227.997 321.068 227.839ZM321.9 250.663C323.64 250.202 325.012 249.591 325.921 247.92C328.133 243.852 328.163 235.157 323.671 232.532C322.423 231.803 320.544 232.025 319.165 232.145C311.45 235.618 311.65 251.062 321.9 250.663Z"/><path fill="#353275" d="M458.64 227.827C466.422 227.386 472.948 230.46 474.638 238.638C475.399 242.152 474.693 245.825 472.681 248.806C470.187 252.525 466.398 254.713 462.055 255.533C458.066 255.818 454.194 255.2 450.968 252.693C447.955 250.345 446.001 246.893 445.539 243.102C445.094 239.489 446.126 235.85 448.402 233.009C451.141 229.558 454.413 228.3 458.64 227.827ZM462.263 250.575C463.373 249.881 464.06 249.409 464.902 248.346C468.479 243.829 467.92 233.944 461.614 232.065C460.894 231.851 458.554 232.067 457.709 232.159C450.434 236.653 452.327 252.462 462.263 250.575Z"/><path fill="#353275" d="M493.661 233.918C492.905 232.635 491.499 230.496 491.426 229.051C492.784 227.653 501.796 227.796 503.217 228.762C503.432 230.026 502.062 231.673 501.797 232.629C500.811 236.184 504.538 245.825 505.781 248.968C508.423 244.344 510.124 238.622 510.635 233.317C509.589 231.569 507.256 229.77 507.14 228.452C510.413 228.06 514.413 228.125 517.757 228.116C517.359 230.058 516.129 233.086 515.188 235.441C512.891 241.135 511.407 252.522 505.236 255.322C500.128 257.64 497.236 247.196 496.439 244.109C494.935 247.329 490.39 261.528 484.3 253.258C482.105 250.278 475.832 231.629 476.249 228.773C476.961 228.14 477.144 228.3 478.215 228.159C481.443 228.105 485.453 228.026 488.603 228.536C487.624 230.06 486.617 231.479 485.574 232.955C486.075 237.477 488.479 245.376 490.592 249.424C491.939 243.857 492.915 239.606 493.661 233.918Z"/><path fill="#353275" d="M339.7 228.153C341.879 228.082 348.076 227.139 348.294 229.931C347.889 231.161 347.295 231.591 346.375 232.472C348.159 238.76 347.842 242.024 350.658 248.914C350.858 248.533 351.049 248.148 351.231 247.758C353.058 243.841 354.445 238.355 354.232 234.031C354.185 233.074 352.91 230.383 352.488 229.235L352.751 228.75C355.074 227.715 361.234 228.117 363.964 228.242C363.517 229.171 363.088 230.108 362.678 231.054C360.593 235.994 364.598 244.409 366.541 249.16C366.734 248.834 366.921 248.504 367.1 248.17C368.596 245.376 372.247 235.496 370.479 232.51C369.437 230.75 368.001 230.076 367.629 228.859L367.932 228.444L369.188 228.383C370.728 228.338 376.823 227.99 377.915 228.615C378.136 230.681 371.154 249.722 369.601 252.045C363.592 261.033 357.915 250.359 356.965 244.004C355.66 247.235 354.976 251.938 352.554 254.295C350.984 255.824 349.354 255.425 347.294 255.265C340.978 251.584 340.523 241.722 339.027 235.314C338.645 233.679 337.071 230.359 336.339 228.58C337.434 228.375 338.588 228.274 339.7 228.153Z"/><path fill="#353275" d="M521.627 228.144C523.385 228.041 525.122 227.876 526.869 228.086C527.823 228.951 526.739 229.135 527.463 230.443C529.143 230.23 530.376 228.476 531.676 228.21C548.442 224.779 545.913 240.791 545.77 249.701C546.975 250.665 549.074 252.096 548.811 253.738C546.78 254.981 536.344 256.26 535.938 252.397C536.354 251.267 537.136 250.832 538.109 250.07C538.127 246.08 538.106 242.091 538.046 238.102C538.031 234.71 537.551 232.426 533.033 232.667C530.829 232.785 529.318 234.135 527.973 235.82C527.582 239.914 527.738 245.657 527.817 249.864C529.3 250.688 530.696 251.138 531.082 252.893C529.868 255.58 519.332 255.44 518.018 253.433C518 251.743 519.723 250.652 519.872 249.54C520.517 244.732 520.473 238.968 520.122 234.122C516.828 231.229 517.31 229.297 521.627 228.144Z"/><path fill="#353275" d="M382.747 228.159C384.11 228.125 386.373 227.856 387.305 228.731C387.428 229.481 387.439 230.059 387.882 230.663C389.276 230.658 390.933 228.535 392.223 228.313C408.779 225.473 405.874 237.931 405.756 249.683L405.927 249.818C407.34 250.941 408.377 251.489 408.584 253.276C408.283 253.978 408.256 254.213 407.457 254.554C405.467 255.402 396.973 255.13 396.258 253.214C396.485 252.013 397.462 251.041 398.257 250.078C398.48 246.426 398.393 242.616 398.369 238.946C398.278 232.443 396.801 231.472 390.676 233.557C388.566 237.749 389.13 245.24 389.226 249.978C390.207 251.174 391.34 252.268 391.28 253.814C389.546 255.246 381.486 255.669 379.549 254.065C377.989 252.774 380.274 250.568 381.196 249.529C381.252 245.014 381.401 238.948 380.913 234.569C377.582 231.224 377.598 228.733 382.747 228.159Z"/><path fill="#353275" d="M434.809 219.19C435.87 219.248 436.19 219.163 436.985 219.772C438.299 221.612 437.813 225.716 437.806 228.196C439.299 228.155 442.772 227.886 443.9 228.485C443.973 228.767 444.057 229.038 444.017 229.338C443.414 233.915 441.331 233.03 437.861 232.414C437.709 237.841 437.895 243.985 437.894 249.498C440.358 249.672 443.006 249.865 444.825 251.775C445.176 252.762 445.173 252.286 444.889 253.251C443.996 254.235 443.871 254.349 442.664 254.898C437.758 255.145 435.003 255.108 430.187 254.421C430.478 247.829 430.223 239.395 430.214 232.663C428.285 232.46 426.518 232.409 425.005 231.099C424.764 228.61 430.509 227.684 432.463 227.208C433.482 224.049 432.968 221.468 434.809 219.19Z"/><path fill="#2D2B5C" d="M424.107 289.876C423.881 284.456 423.915 279.033 423.869 273.61C423.842 270.335 424.231 270.06 421.053 268.992L420.862 268.603L421.166 268.294C423.608 267.53 425.474 267.312 428.006 267.385C435.661 267.608 440.891 269.088 437.913 277.941C436.715 278.884 435.112 279.948 433.841 280.844C437.151 286.53 440.537 288.933 446.315 291.2C443.549 291.547 440.961 291.604 438.182 291.623C435.691 289.413 430.987 279.671 428.517 281.332C427.338 283.431 427.673 287.132 427.707 289.603C427.174 291.534 425.026 291.7 424.129 290.399L424.107 289.876ZM427.611 278.98C430.168 279.078 431.975 279.442 434.121 277.922C438.136 272.08 433.004 269.939 427.861 269.877C427.778 272.862 427.752 276.016 427.611 278.98Z"/><path fill="#2D2B5C" d="M396.998 289.444C396.922 283.747 396.918 278.047 396.776 272.352C396.716 269.942 397.198 269.831 395.205 268.634L395.172 268.267C396.947 267.252 410.649 267.456 412.871 268.758L412.748 269.789C410.341 270.777 409.186 270.264 406.656 269.996C404.642 270.044 403.138 270.04 401.13 269.915C401.094 272.639 401.056 275.192 400.884 277.912C402.415 277.908 406.664 277.713 407.676 278.633C405.877 279.391 402.852 279.225 400.832 279.206C400.939 281.513 401.147 287.341 400.665 289.445C402.772 289.347 405.009 289.436 407.139 289.39C408.795 289.354 412.563 288.563 413.651 289.814C412.012 293.022 395.32 292.379 394.683 290.583C395.472 289.71 395.766 289.832 396.998 289.444Z"/><path fill="#2A2848" d="M400.665 289.445C400.29 286.301 400.192 272.992 400.712 270.16C401.684 268.882 402.205 269.662 403.69 269.664C404.645 269.666 405.876 269.478 406.656 269.996C404.642 270.044 403.138 270.04 401.13 269.915C401.094 272.639 401.056 275.192 400.884 277.912C402.415 277.908 406.664 277.713 407.676 278.633C405.877 279.391 402.852 279.225 400.832 279.206C400.939 281.513 401.147 287.341 400.665 289.445Z"/><path fill="#2D2B5C" d="M279.008 269.219C277.665 269.186 276.297 269.263 275.068 268.763L275.129 268.471C276.989 267.721 285.026 266.921 286.044 268.605C285.063 269.215 284.103 269.226 282.937 269.379C282.798 274.16 282.321 281.509 283.227 286.163C284.135 290.824 290.908 289.923 294.439 288.767C294.945 288.065 295.305 287.611 295.877 286.962L296.784 286.108L297.031 286.289C296.736 287.142 296.105 288.712 296.138 289.536C294.114 292.013 291.825 291.773 289.047 291.99C280.78 292.633 278.814 287.054 279.004 279.933C279.091 276.683 279.039 272.589 279.008 269.219Z"/><path fill="#353275" d="M496.946 267.429C500.795 267.313 503.939 267.696 507.751 267.916C508.663 269.068 508.319 268.578 508.414 270.329C508.793 272.324 508.596 286.569 508.374 289.188C509.721 289.294 511.204 289.27 512.35 289.921L512.788 290.494C511.632 292.494 503.251 292.416 501.682 291.39C501.793 290.835 501.884 290.726 502.117 290.216C502.998 289.468 504.135 289.379 505.312 289.135L505.223 269.826C501.269 270.113 499.557 270.001 495.887 271.562C496.15 270.282 496.605 268.718 496.946 267.429Z"/><path fill="#2A2848" d="M508.374 289.188C509.721 289.294 511.204 289.27 512.35 289.921L512.788 290.494C511.632 292.494 503.251 292.416 501.682 291.39C503.805 291.066 507.573 291.841 508.731 290.667L508.374 289.188Z"/><path fill="#353275" d="M525.125 267.756C527.171 267.592 532.313 267.352 534.063 268.155L534.211 268.607C533.287 268.854 532.984 268.782 532.345 269.388C532.353 269.718 536.55 277.087 537.157 278.253C539.352 281.312 537.465 285.132 538.405 286.916C539.126 290.396 540.995 288.687 542.044 291.067C540.824 292.39 533.324 292.31 531.717 291.175L531.722 290.656C532.574 289.763 533.482 289.605 534.679 289.217C534.378 279.881 533.774 273.423 525.125 267.756Z"/><path fill="#353275" d="M453.741 271.434C454.656 271.411 455.09 271.23 455.706 271.682L455.906 272.536C455.855 273.522 455.713 275.265 456.615 275.877C460.41 278.449 468.469 278.863 466.999 285.427C466.622 287.112 465.106 290.205 463.488 290.947C459.1 292.96 450.551 292.335 452.935 285.429L453.355 285.227C454.785 286.042 455.538 288.311 457.24 289.59C459.08 289.884 460.782 289.857 462.405 288.864C465.232 287.123 463.777 283.233 461.376 281.847C459.126 280.547 455.888 280.293 454.24 278.111C452.909 276.347 453.439 273.496 453.741 271.434Z"/><path fill="#353275" d="M314.3 270.267C313.042 269.466 311.387 268.999 310.709 268.285C311.857 267.361 314.372 267.59 315.8 267.694C317.844 267.843 318.318 268.676 319.568 270.217C323.503 275.071 327.725 281.892 331.974 286.331C333.191 288.561 333.154 289.333 333.195 291.897C329.211 288.903 319.439 275.214 316.237 270.597C316.193 273.152 316.147 274.849 315.834 277.397L315.502 277.607C314.962 276.78 314.465 271.64 314.3 270.267Z"/><path fill="#353275" d="M480.827 286.782C480.674 283.763 481.068 271.069 480.19 269.655C478.964 269.238 478.464 269.419 477.696 268.61L477.668 268.035C478.945 267.052 484.969 267.354 486.472 268.113L486.569 268.673C485.83 269.435 484.155 269.271 484.106 269.961C483.719 275.397 483.738 284.664 483.738 289.67C484.929 289.657 486.173 289.538 487.251 290.015L487.718 290.626L487.595 291.369C485.939 292.174 478.726 292.97 477.675 290.727C478.171 289.958 479.342 289.809 480.361 289.502C480.932 288.687 480.826 288.198 480.828 287.177L480.827 286.782Z"/><path fill="#2A2848" d="M480.827 286.782C481.459 287.588 481.264 289.903 481.322 291.231C483.171 291.207 485.837 291.082 487.595 291.369C485.939 292.174 478.726 292.97 477.675 290.727C478.171 289.958 479.342 289.809 480.361 289.502C480.932 288.687 480.826 288.198 480.828 287.177L480.827 286.782Z"/><path fill="#353275" d="M346.246 291.344C347.784 289.646 348.672 288.867 348.4 286.418C347.991 282.733 349.472 270.732 346.714 268.275L347.047 267.821C348.283 267.48 350.349 267.541 351.701 267.524C351.856 267.855 352.323 268.794 352.388 269.088C351.756 271.036 352.08 286.422 352.11 289.562C353.348 289.688 353.867 289.68 355.009 290.251L355.124 290.673C353.171 291.858 348.524 291.544 346.246 291.344Z"/><path fill="#353275" d="M377.128 289.647C376.742 290.569 376.719 290.626 376.076 291.377L375.455 291.419C374.053 289.692 368.855 275.093 367.004 272.051C365.56 269.677 366.244 269.58 363.151 268.549L363.018 268.101C364.311 267.001 370.468 267.709 372.059 268.282L372.189 268.609C371.19 269.092 370.181 269.092 369.061 269.199C371.99 273.404 374.846 280.896 376.529 285.803C376.441 287.429 377.029 288.089 377.128 289.647Z"/><path fill="#353275" d="M85.2214 235.06C87.4244 230.906 87.3524 224.756 94.4962 227.498C96.6527 228.326 96.8324 234.145 93.3581 234.421C91.1207 233.262 92.7142 230.647 91.4098 228.999C89.3667 229.605 89.7744 233.482 88.5459 235.042C87.4829 236.391 86.0518 237.082 84.8512 238.449L83.8462 239.462C81.234 237.757 80.6266 234.001 80.9131 230.993C80.9605 230.495 81.1466 230.547 81.5691 230.33C83.3599 231.027 84.2988 233.348 85.2214 235.06Z"/><path fill="#2A2848" d="M331.974 286.331L332.001 286.02C332.228 283.287 332.303 272.127 331.221 269.906C329.812 268.85 328.98 269.56 328.029 268.636L328.047 268.222C329.257 267.43 334.943 267.254 336.079 268.262L335.97 268.71C335.433 268.968 334.199 269.414 334.126 269.838C333.649 272.635 334.725 290.34 333.595 291.715L333.195 291.897C333.154 289.333 333.191 288.561 331.974 286.331Z"/><path fill="#2A2848" d="M383.042 269.446C382.073 269.276 381.252 269.281 380.624 268.6C381.624 267.312 386.844 267.727 388.488 267.903C387.162 268.704 386.464 269 385.765 270.363C382.596 276.553 380.467 283.569 377.128 289.647C377.029 288.089 376.441 287.429 376.529 285.803C378.301 284.698 382.278 272.127 383.042 269.446Z"/><path fill="#2D2B5C" d="M314.3 270.267C314.465 271.64 314.962 276.78 315.502 277.607L315.834 277.397C316.047 280.901 315.857 285.93 315.976 289.7C317.49 289.793 319.019 289.808 320.352 290.537L320.349 290.977C318.754 291.99 312.634 292.925 311.696 291.08C311.995 290.035 312.732 289.707 313.661 289.044C313.995 283.757 313.685 274.772 314.3 270.267Z"/><path fill="#2A2848" d="M541.219 268.988L540.673 268.456C541.231 266.931 546.808 267.43 548.436 267.455C547.894 267.908 546.639 269.029 546.09 269.309C541.572 273.943 542.088 275.54 538.587 280.079C538.594 281.624 538.715 285.603 538.405 286.916C537.465 285.132 539.352 281.312 537.157 278.253C538.932 276.682 541.642 271.393 541.219 268.988Z"/><path fill="#2D2B5C" d="M541.219 268.988L540.673 268.456C541.231 266.931 546.808 267.43 548.436 267.455C547.894 267.908 546.639 269.029 546.09 269.309C542.429 269.803 544.714 269.458 541.443 269.016L541.219 268.988Z"/><path fill="#2D2B5C" d="M453.741 271.434C454.539 269.651 454.906 269.012 456.853 268.204C460.583 266.656 468.945 267.165 466.334 273.334L465.853 273.679C464.637 273.09 464.706 271.802 463.835 271.119C462.114 269.769 457.765 269.751 456.234 271.471L455.906 272.536L455.706 271.682C455.09 271.23 454.656 271.411 453.741 271.434Z"/><path fill="#2A2848" d="M295.963 269.277C294.823 269.197 293.591 269.264 292.701 268.653C293.38 267.295 298.891 267.737 300.244 268.209L300.408 268.694C299.051 269.627 298.664 268.57 297.953 269.764C297.878 274.866 299.225 286.206 296.138 289.536C296.105 288.712 296.736 287.142 297.031 286.289L296.784 286.108L295.877 286.962C297.517 281.842 296.77 274.565 295.963 269.277Z"/><path fill="#2D2B5C" d="M507.751 267.916C511.166 267.929 514.581 267.896 517.994 267.816L517.794 271.887C515.464 270.455 510.972 268.912 508.414 270.329C508.319 268.578 508.663 269.068 507.751 267.916Z"/><path fill="#2A2848" d="M427.707 289.603C429.102 289.857 430.65 289.766 431.569 290.401L431.665 291.038C430.22 292.363 422.913 291.92 421.258 290.749L421.338 290.372C422.868 289.726 422.952 290.11 424.107 289.876L424.129 290.399C425.026 291.7 427.174 291.534 427.707 289.603Z"/><path d="M349.352 156.196L350.35 156.246C350.178 157.247 350.289 164.187 350.442 165.266L350.882 165.743C350.164 166.11 349.947 166.015 349.15 165.918C348.971 163.85 349.151 158.257 349.352 156.196Z"/><path fill="#DBA627" d="M99.8058 252.678L100.147 253.212C100.936 253.126 101.145 252.994 101.854 252.683C100.905 254.148 98.2436 257.412 96.4866 257.812L96.3419 257.397C96.978 255.466 98.21 254.196 99.4785 252.588L99.8058 252.678Z"/><path fill="#2A2848" d="M351.701 267.524C353.54 267.759 354.976 267.945 356.799 268.363C355.196 268.802 354.069 269.112 352.388 269.088C352.323 268.794 351.856 267.855 351.701 267.524Z"/></svg>